HIERARCHY
ROOT Hips
{
	OFFSET 115.004059 184.361008 -70.984138
	CHANNELS 6 Xposition Yposition Zposition Xrotation Yrotation Zrotation
	JOINT LeftUpLeg
	{
		OFFSET 6.050446 1.960724 8.618641
		CHANNELS 6 Xposition Yposition Zposition Xrotation Yrotation Zrotation
		JOINT LeftLeg
		{
			OFFSET -17.874222 -37.818466 11.938377
			CHANNELS 6 Xposition Yposition Zposition Xrotation Yrotation Zrotation
			JOINT LeftFoot
			{
				OFFSET 1.810493 -41.264328 -9.454155
				CHANNELS 6 Xposition Yposition Zposition Xrotation Yrotation Zrotation
				JOINT LeftToe
				{
					OFFSET -13.438164 -7.259949 8.123966
					CHANNELS 6 Xposition Yposition Zposition Xrotation Yrotation Zrotation
					JOINT LeftToe_end
					{
						OFFSET -0.004387 0.099831 0.004059
						CHANNELS 6 Xposition Yposition Zposition Xrotation Yrotation Zrotation
						End Site
						{
							OFFSET 0.085190 0.005859 -0.052059
						}
					}
				}
			}
		}
	}
	JOINT RightUpLeg
	{
		OFFSET -8.706955 -1.528397 -6.048645
		CHANNELS 6 Xposition Yposition Zposition Xrotation Yrotation Zrotation
		JOINT RightLeg
		{
			OFFSET -5.564728 -41.360611 12.271454
			CHANNELS 6 Xposition Yposition Zposition Xrotation Yrotation Zrotation
			JOINT RightFoot
			{
				OFFSET 33.602570 -16.282745 -20.028717
				CHANNELS 6 Xposition Yposition Zposition Xrotation Yrotation Zrotation
				JOINT RightToe
				{
					OFFSET 2.199020 -16.870338 3.137909
					CHANNELS 6 Xposition Yposition Zposition Xrotation Yrotation Zrotation
					JOINT RightToe_end
					{
						OFFSET -0.082382 0.035049 0.044525
						CHANNELS 6 Xposition Yposition Zposition Xrotation Yrotation Zrotation
						End Site
						{
							OFFSET 0.018723 0.090996 -0.036980
						}
					}
				}
			}
		}
	}
	JOINT Spine
	{
		OFFSET 1.346504 6.633438 -2.932785
		CHANNELS 6 Xposition Yposition Zposition Xrotation Yrotation Zrotation
		JOINT Spine1
		{
			OFFSET -2.238060 12.386887 0.127335
			CHANNELS 6 Xposition Yposition Zposition Xrotation Yrotation Zrotation
			JOINT Spine2
			{
				OFFSET -2.922363 11.643372 2.871620
				CHANNELS 6 Xposition Yposition Zposition Xrotation Yrotation Zrotation
				JOINT Neck
				{
					OFFSET -6.582275 22.188110 11.476051
					CHANNELS 6 Xposition Yposition Zposition Xrotation Yrotation Zrotation
					JOINT Head
					{
						OFFSET -1.413452 10.363022 5.391010
						CHANNELS 6 Xposition Yposition Zposition Xrotation Yrotation Zrotation
						JOINT Head_end
						{
							OFFSET -0.036713 -0.007355 0.092716
							CHANNELS 6 Xposition Yposition Zposition Xrotation Yrotation Zrotation
							End Site
							{
								OFFSET 0.014854 -0.098862 -0.001953
							}
						}
					}
				}
				JOINT LeftShoulder
				{
					OFFSET 0.896217 17.986115 10.187702
					CHANNELS 6 Xposition Yposition Zposition Xrotation Yrotation Zrotation
					JOINT LeftArm
					{
						OFFSET 10.952934 -1.764816 2.061596
						CHANNELS 6 Xposition Yposition Zposition Xrotation Yrotation Zrotation
						JOINT LeftForeArm
						{
							OFFSET 21.443024 -23.816360 -7.872864
							CHANNELS 6 Xposition Yposition Zposition Xrotation Yrotation Zrotation
							JOINT LeftHand
							{
								OFFSET -15.482925 -10.574234 16.837635
								CHANNELS 6 Xposition Yposition Zposition Xrotation Yrotation Zrotation
								JOINT LeftHand_end
								{
									OFFSET 0.077286 -0.008728 0.062843
									CHANNELS 6 Xposition Yposition Zposition Xrotation Yrotation Zrotation
									End Site
									{
										OFFSET 0.063446 0.011230 -0.076462
									}
								}
							}
						}
					}
				}
				JOINT RightShoulder
				{
					OFFSET -9.925011 17.444290 5.029076
					CHANNELS 6 Xposition Yposition Zposition Xrotation Yrotation Zrotation
					JOINT RightArm
					{
						OFFSET -9.746284 -2.252014 -5.222069
						CHANNELS 6 Xposition Yposition Zposition Xrotation Yrotation Zrotation
						JOINT RightForeArm
						{
							OFFSET -3.113632 -30.587357 -11.988533
							CHANNELS 6 Xposition Yposition Zposition Xrotation Yrotation Zrotation
							JOINT RightHand
							{
								OFFSET 0.929787 -5.747803 24.517925
								CHANNELS 6 Xposition Yposition Zposition Xrotation Yrotation Zrotation
								JOINT RightHand_end
								{
									OFFSET -0.085556 -0.051743 -0.000324
									CHANNELS 6 Xposition Yposition Zposition Xrotation Yrotation Zrotation
									End Site
									{
										OFFSET 0.010361 -0.016525 -0.098072
									}
								}
							}
						}
					}
				}
			}
		}
	}
}
MOTION
Frames: 5
Frame Time: 0.041667
-131.695435 191.471283 90.265160 3.850529 48.012398 -11.180937 6.050425 1.960772 8.618609 10.476235 6.178137 34.957745 -17.874203 -37.818501 11.938374 -16.943039 18.056191 -19.401125 1.810492 -41.264332 -9.454144 9.496135 9.368273 -4.566712 -13.438175 -7.259960 8.123952 0.000003 -0.000018 0.000002 -0.004393 0.099845 0.004056 -0.000000 -0.000001 -0.000000 -8.706948 -1.528399 -6.048638 16.485034 8.799666 13.446575 -5.564697 -41.360649 12.271503 -41.518504 -2.635524 -61.892729 33.602509 -16.282747 -20.028728 -0.194907 -5.068572 -13.360248 2.199001 -16.870352 3.137892 -0.000002 0.000005 0.000015 -0.082416 0.035019 0.044501 -0.000000 0.000004 -0.000001 1.346498 6.633391 -2.932769 -3.373190 -4.089488 -1.035867 -2.238085 12.386923 0.127331 -6.609012 -8.175619 -2.787250 -2.922371 11.643333 2.871593 -6.390869 -8.127136 -3.449420 -6.582303 22.188133 11.476063 3.893817 -6.679470 -4.695218 -1.413454 10.363057 5.391017 3.973438 -10.080152 3.031296 -0.036718 -0.007372 0.092739 -0.000001 -0.000001 -0.000000 0.896199 17.986111 10.187683 -3.184500 -13.599057 11.487097 10.952939 -1.764847 2.061610 -34.476660 -8.007826 20.604239 21.443005 -23.816343 -7.872843 12.351333 39.707308 66.434463 -15.482960 -10.574199 16.837605 39.028824 17.360732 -12.207046 0.077290 -0.008726 0.062837 0.000000 0.000003 0.000002 -9.925065 17.444307 5.029052 3.807927 -6.123026 -8.817270 -9.746305 -2.251970 -5.222084 4.338156 -5.277367 -51.148360 -3.113647 -30.587364 -11.988556 73.237755 -22.135175 -4.323718 0.929801 -5.747812 24.517918 25.158522 8.251400 40.605369 -0.085522 -0.051726 -0.000337 -0.000001 0.000003 -0.000002 
-131.670731 191.467300 90.234688 3.847700 47.908569 -11.171579 6.050427 1.960763 8.618627 10.497401 6.195712 34.947650 -17.874212 -37.818508 11.938353 -16.945187 18.082219 -19.419281 1.810484 -41.264355 -9.454159 9.492968 9.383114 -4.562182 -13.438168 -7.259960 8.123951 0.000003 -0.000016 0.000002 -0.004382 0.099815 0.004069 0.000000 -0.000004 -0.000001 -8.706968 -1.528381 -6.048638 16.496848 8.819542 13.427730 -5.564697 -41.360664 12.271469 -41.536132 -2.614101 -61.897947 33.602512 -16.282751 -20.028719 -0.175854 -5.057629 -13.319738 2.199031 -16.870352 3.137913 -0.000002 0.000005 0.000015 -0.082386 0.035026 0.044541 -0.000004 0.000001 0.000001 1.346485 6.633389 -2.932775 -3.380362 -4.095344 -1.043301 -2.238073 12.386948 0.127329 -6.626264 -8.186064 -2.801450 -2.922380 11.643361 2.871572 -6.409080 -8.136419 -3.463276 -6.582288 22.188128 11.476067 4.144979 -6.639951 -4.643386 -1.413423 10.362996 5.391011 3.930259 -10.129824 3.115703 -0.036697 -0.007326 0.092737 -0.000001 -0.000001 0.000000 0.896211 17.986074 10.187733 -3.173611 -13.682237 11.461864 10.952936 -1.764847 2.061616 -34.535001 -8.016137 20.597036 21.442974 -23.816330 -7.872853 12.368527 39.707554 66.418829 -15.482962 -10.574247 16.837589 38.839823 17.321131 -11.962015 0.077301 -0.008724 0.062839 -0.000000 0.000002 -0.000001 -9.925030 17.444294 5.029092 3.651481 -6.044321 -8.894293 -9.746326 -2.251975 -5.222085 4.364216 -5.319312 -51.155282 -3.113636 -30.587360 -11.988559 73.219812 -22.085321 -4.307474 0.929781 -5.747818 24.517906 25.163185 7.919053 40.486182 -0.085517 -0.051745 -0.000346 0.000001 0.000001 -0.000005 
-131.646057 191.463348 90.204140 3.844900 47.804740 -11.162243 6.050425 1.960756 8.618610 10.511145 6.292390 34.922737 -17.874218 -37.818512 11.938372 -16.970524 18.105032 -19.425847 1.810490 -41.264347 -9.454157 9.491498 9.392887 -4.558902 -13.438178 -7.259949 8.123946 0.000003 -0.000016 0.000003 -0.004382 0.099830 0.004080 -0.000000 -0.000004 -0.000000 -8.706951 -1.528391 -6.048657 16.502109 8.879342 13.394854 -5.564716 -41.360634 12.271469 -41.579210 -2.569337 -61.917687 33.602566 -16.282753 -20.028717 -0.164353 -5.044809 -13.273958 2.199047 -16.870329 3.137902 -0.000003 0.000005 0.000015 -0.082399 0.035031 0.044533 0.000002 0.000001 0.000000 1.346482 6.633390 -2.932772 -3.397984 -4.107552 -1.061244 -2.238036 12.386942 0.127344 -6.670159 -8.208420 -2.832806 -2.922373 11.643337 2.871599 -6.454965 -8.156885 -3.492895 -6.582289 22.188107 11.476068 4.820781 -6.597974 -4.431655 -1.413445 10.362992 5.391012 3.681793 -10.209706 3.116249 -0.036687 -0.007352 0.092739 -0.000000 -0.000003 0.000000 0.896217 17.986099 10.187698 -3.159505 -13.778149 11.453668 10.952911 -1.764847 2.061616 -34.629701 -8.045339 20.626369 21.443035 -23.816345 -7.872867 12.385711 39.707783 66.403174 -15.482958 -10.574200 16.837624 38.543529 17.236061 -11.478068 0.077285 -0.008716 0.062831 -0.000001 0.000000 0.000000 -9.925011 17.444281 5.029064 3.495159 -5.965407 -8.971090 -9.746314 -2.251997 -5.222089 4.497999 -5.352759 -51.129276 -3.113618 -30.587372 -11.988535 73.214335 -21.976945 -4.268648 0.929814 -5.747837 24.517916 25.011219 7.105229 40.329508 -0.085537 -0.051704 -0.000336 0.000001 0.000001 -0.000001 
-131.621414 191.459351 90.173576 3.842133 47.700904 -11.152930 6.050422 1.960713 8.618626 10.516593 6.388100 34.888835 -17.874214 -37.818523 11.938385 -16.979116 18.135211 -19.404480 1.810511 -41.264355 -9.454132 9.486978 9.411751 -4.553381 -13.438167 -7.259946 8.123958 0.000002 -0.000016 0.000001 -0.004405 0.099846 0.004069 -0.000000 -0.000004 -0.000000 -8.706958 -1.528408 -6.048632 16.488801 8.968897 13.335857 -5.564707 -41.360641 12.271477 -41.603403 -2.534164 -61.928103 33.602543 -16.282749 -20.028708 -0.151280 -5.032392 -13.229286 2.198999 -16.870331 3.137906 -0.000001 0.000006 0.000015 -0.082370 0.035028 0.044508 -0.000000 0.000003 -0.000000 1.346487 6.633370 -2.932761 -3.420032 -4.110417 -1.075877 -2.238044 12.386950 0.127340 -6.717880 -8.211743 -2.859859 -2.922354 11.643377 2.871588 -6.504921 -8.160032 -3.513976 -6.582302 22.188128 11.476057 5.516655 -6.622634 -4.155218 -1.413460 10.363047 5.391034 3.406755 -10.277668 3.017802 -0.036706 -0.007349 0.092738 0.000001 -0.000003 -0.000001 0.896206 17.986103 10.187695 -3.144103 -13.871494 11.440660 10.952928 -1.764828 2.061636 -34.622980 -8.150061 20.650703 21.443039 -23.816372 -7.872854 12.402900 39.708008 66.387526 -15.482943 -10.574224 16.837605 38.538731 17.138913 -11.139543 0.077288 -0.008765 0.062832 -0.000000 0.000000 -0.000001 -9.925043 17.444309 5.029057 3.342127 -5.851597 -9.043139 -9.746280 -2.251982 -5.222078 4.639519 -5.325548 -51.074280 -3.113649 -30.587372 -11.988521 73.307191 -21.885818 -4.227076 0.929754 -5.747835 24.517931 24.804587 6.284669 40.616652 -0.085556 -0.051694 -0.000331 0.000001 0.000001 0.000002 
-131.596680 191.455383 90.143074 3.838750 47.515864 -11.138567 6.050409 1.960743 8.618625 10.511910 6.495046 34.842875 -17.874226 -37.818531 11.938381 -16.988181 18.178000 -19.377947 1.810505 -41.264339 -9.454163 9.488237 9.440405 -4.552130 -13.438188 -7.259951 8.123945 0.000003 -0.000016 0.000005 -0.004382 0.099838 0.004060 -0.000000 -0.000004 -0.000000 -8.706998 -1.528433 -6.048612 16.453280 9.070835 13.249205 -5.564714 -41.360638 12.271484 -41.605353 -2.507882 -61.907161 33.602535 -16.282766 -20.028727 -0.141913 -5.019065 -13.182035 2.199007 -16.870348 3.137904 -0.000001 0.000004 0.000012 -0.082385 0.035023 0.044520 -0.000000 0.000000 0.000001 1.346456 6.633401 -2.932755 -3.442658 -4.105736 -1.088804 -2.238031 12.386901 0.127346 -6.766584 -8.200907 -2.880752 -2.922382 11.643357 2.871599 -6.555681 -8.150693 -3.525983 -6.582308 22.188139 11.476067 6.157950 -6.687637 -3.903524 -1.413464 10.363041 5.391031 3.265652 -10.395077 3.017519 -0.036696 -0.007342 0.092714 -0.000001 0.000001 -0.000000 0.896205 17.986120 10.187696 -3.137391 -13.911065 11.458052 10.952922 -1.764835 2.061626 -34.577836 -8.275690 20.677797 21.442978 -23.816347 -7.872844 12.408745 39.732430 66.434122 -15.482921 -10.574199 16.837639 38.640924 17.019903 -10.779618 0.077277 -0.008757 0.062836 0.000001 -0.000001 -0.000001 -9.925035 17.444309 5.029057 3.431288 -5.720897 -8.964738 -9.746321 -2.252029 -5.222096 4.616031 -5.373994 -51.157140 -3.113617 -30.587399 -11.988562 73.383416 -21.781953 -4.182559 0.929742 -5.747807 24.517960 24.792888 5.633409 41.212511 -0.085508 -0.051709 -0.000340 0.000001 0.000001 -0.000003 
